<svg width="1920" height="1007" viewBox="0 0 1920 1007" fill="none" xmlns="http://www.w3.org/2000/svg">
<g opacity="0.15">
<line x1="61" y1="4.40397e-08" x2="61" y2="1007" stroke="#D71920" stroke-width="2"/>
<line x1="1" y1="4.40397e-08" x2="0.999956" y2="1007" stroke="#D71920" stroke-width="2"/>
<line x1="121" y1="4.40397e-08" x2="121" y2="1007" stroke="#D71920" stroke-width="2"/>
<line x1="181" y1="4.40397e-08" x2="181" y2="1007" stroke="#D71920" stroke-width="2"/>
<line x1="241" y1="4.40397e-08" x2="241" y2="1007" stroke="#D71920" stroke-width="2"/>
<line x1="301" y1="4.40397e-08" x2="301" y2="1007" stroke="#D71920" stroke-width="2"/>
<line x1="361" y1="4.40397e-08" x2="361" y2="1007" stroke="#D71920" stroke-width="2"/>
<line x1="421" y1="4.40397e-08" x2="421" y2="1007" stroke="#D71920" stroke-width="2"/>
<line x1="481" y1="4.40397e-08" x2="481" y2="1007" stroke="#D71920" stroke-width="2"/>
<line x1="541" y1="4.40397e-08" x2="541" y2="1007" stroke="#D71920" stroke-width="2"/>
<line x1="601" y1="4.40397e-08" x2="601" y2="1007" stroke="#D71920" stroke-width="2"/>
<line x1="661" y1="4.40397e-08" x2="661" y2="1007" stroke="#D71920" stroke-width="2"/>
<line x1="721" y1="4.40397e-08" x2="721" y2="1007" stroke="#D71920" stroke-width="2"/>
<line x1="781" y1="4.40397e-08" x2="781" y2="1007" stroke="#D71920" stroke-width="2"/>
<line x1="841" y1="4.40397e-08" x2="841" y2="1007" stroke="#D71920" stroke-width="2"/>
<line x1="901" y1="4.40397e-08" x2="901" y2="1007" stroke="#D71920" stroke-width="2"/>
<line x1="961" y1="4.40397e-08" x2="961" y2="1007" stroke="#D71920" stroke-width="2"/>
<line x1="1021" y1="4.40397e-08" x2="1021" y2="1007" stroke="#D71920" stroke-width="2"/>
<line x1="1081" y1="4.40397e-08" x2="1081" y2="1007" stroke="#D71920" stroke-width="2"/>
<line x1="1141" y1="4.40397e-08" x2="1141" y2="1007" stroke="#D71920" stroke-width="2"/>
<line x1="1201" y1="4.40397e-08" x2="1201" y2="1007" stroke="#D71920" stroke-width="2"/>
<line x1="1261" y1="4.40397e-08" x2="1261" y2="1007" stroke="#D71920" stroke-width="2"/>
<line x1="1321" y1="4.40397e-08" x2="1321" y2="1007" stroke="#D71920" stroke-width="2"/>
<line x1="1381" y1="4.40397e-08" x2="1381" y2="1007" stroke="#D71920" stroke-width="2"/>
<line x1="1441" y1="4.40397e-08" x2="1441" y2="1007" stroke="#D71920" stroke-width="2"/>
<line x1="1501" y1="4.40397e-08" x2="1501" y2="1007" stroke="#D71920" stroke-width="2"/>
<line x1="1561" y1="4.40397e-08" x2="1561" y2="1007" stroke="#D71920" stroke-width="2"/>
<line x1="1621" y1="4.40397e-08" x2="1621" y2="1007" stroke="#D71920" stroke-width="2"/>
<line x1="1681" y1="4.40397e-08" x2="1681" y2="1007" stroke="#D71920" stroke-width="2"/>
<line x1="1741" y1="4.40397e-08" x2="1741" y2="1007" stroke="#D71920" stroke-width="2"/>
<line x1="1801" y1="4.40397e-08" x2="1801" y2="1007" stroke="#D71920" stroke-width="2"/>
<line x1="1861" y1="4.40397e-08" x2="1861" y2="1007" stroke="#D71920" stroke-width="2"/>
<line x1="8.74228e-08" y1="59" x2="1920" y2="59.0002" stroke="#D71920" stroke-width="2"/>
<line x1="8.74228e-08" y1="119" x2="1920" y2="119" stroke="#D71920" stroke-width="2"/>
<line x1="8.74228e-08" y1="179" x2="1920" y2="179" stroke="#D71920" stroke-width="2"/>
<line x1="8.74228e-08" y1="239" x2="1920" y2="239" stroke="#D71920" stroke-width="2"/>
<line x1="8.74228e-08" y1="299" x2="1920" y2="299" stroke="#D71920" stroke-width="2"/>
<line x1="8.74228e-08" y1="359" x2="1920" y2="359" stroke="#D71920" stroke-width="2"/>
<line x1="8.74228e-08" y1="419" x2="1920" y2="419" stroke="#D71920" stroke-width="2"/>
<line x1="8.74228e-08" y1="479" x2="1920" y2="479" stroke="#D71920" stroke-width="2"/>
<line x1="8.74228e-08" y1="539" x2="1920" y2="539" stroke="#D71920" stroke-width="2"/>
<line x1="8.74228e-08" y1="599" x2="1920" y2="599" stroke="#D71920" stroke-width="2"/>
<line x1="8.74228e-08" y1="659" x2="1920" y2="659" stroke="#D71920" stroke-width="2"/>
<line x1="8.74228e-08" y1="719" x2="1920" y2="719" stroke="#D71920" stroke-width="2"/>
<line x1="8.74228e-08" y1="779" x2="1920" y2="779" stroke="#D71920" stroke-width="2"/>
<line x1="8.74228e-08" y1="839" x2="1920" y2="839" stroke="#D71920" stroke-width="2"/>
<line x1="8.74228e-08" y1="899" x2="1920" y2="899" stroke="#D71920" stroke-width="2"/>
<line x1="8.74228e-08" y1="959" x2="1920" y2="959" stroke="#D71920" stroke-width="2"/>
<line x1="8.74228e-08" y1="1006" x2="1920" y2="1006" stroke="#D71920" stroke-width="2"/>
</g>
</svg>
