<svg width="359" height="1164" viewBox="0 0 359 1164" fill="none" xmlns="http://www.w3.org/2000/svg">
<g opacity="0.15">
<line x1="359" y1="19.5" x2="-4.63708e-08" y2="19.5" stroke="#D71920"/>
<line x1="359" y1="38.5" x2="-4.63708e-08" y2="38.5" stroke="#D71920"/>
<line x1="359" y1="58.5" x2="-4.63708e-08" y2="58.5" stroke="#D71920"/>
<line x1="359" y1="77.5" x2="-4.63708e-08" y2="77.5" stroke="#D71920"/>
<line x1="359" y1="96.5" x2="-4.63708e-08" y2="96.5" stroke="#D71920"/>
<line x1="359" y1="115.5" x2="-4.63708e-08" y2="115.5" stroke="#D71920"/>
<line x1="359" y1="134.5" x2="-4.63708e-08" y2="134.5" stroke="#D71920"/>
<line x1="359" y1="154.5" x2="-4.63708e-08" y2="154.5" stroke="#D71920"/>
<line x1="359" y1="173.5" x2="-4.63708e-08" y2="173.5" stroke="#D71920"/>
<line x1="359" y1="192.5" x2="-4.63708e-08" y2="192.5" stroke="#D71920"/>
<line x1="359" y1="211.5" x2="-4.63708e-08" y2="211.5" stroke="#D71920"/>
<line x1="359" y1="230.5" x2="-4.63708e-08" y2="230.5" stroke="#D71920"/>
<line x1="359" y1="249.5" x2="-4.63708e-08" y2="249.5" stroke="#D71920"/>
<line x1="359" y1="269.5" x2="-4.63708e-08" y2="269.5" stroke="#D71920"/>
<line x1="359" y1="288.5" x2="-4.63708e-08" y2="288.5" stroke="#D71920"/>
<line x1="359" y1="307.5" x2="-4.63708e-08" y2="307.5" stroke="#D71920"/>
<line x1="359" y1="326.5" x2="-4.63708e-08" y2="326.5" stroke="#D71920"/>
<line x1="359" y1="345.5" x2="-4.63708e-08" y2="345.5" stroke="#D71920"/>
<line x1="359" y1="365.5" x2="-4.63708e-08" y2="365.5" stroke="#D71920"/>
<line x1="359" y1="384.5" x2="-4.63708e-08" y2="384.5" stroke="#D71920"/>
<line x1="359" y1="403.5" x2="-4.63708e-08" y2="403.5" stroke="#D71920"/>
<line x1="359" y1="422.5" x2="-4.63708e-08" y2="422.5" stroke="#D71920"/>
<line x1="359" y1="441.5" x2="-4.63708e-08" y2="441.5" stroke="#D71920"/>
<line x1="359" y1="461.5" x2="-4.63708e-08" y2="461.5" stroke="#D71920"/>
<line x1="359" y1="480.5" x2="-4.63708e-08" y2="480.5" stroke="#D71920"/>
<line x1="359" y1="499.5" x2="-4.63708e-08" y2="499.5" stroke="#D71920"/>
<line x1="359" y1="518.5" x2="-4.63708e-08" y2="518.5" stroke="#D71920"/>
<line x1="359" y1="537.5" x2="-4.63708e-08" y2="537.5" stroke="#D71920"/>
<line x1="359" y1="557.5" x2="-4.63708e-08" y2="557.5" stroke="#D71920"/>
<line x1="359" y1="576.5" x2="-4.63708e-08" y2="576.5" stroke="#D71920"/>
<line x1="359" y1="595.5" x2="-4.63708e-08" y2="595.5" stroke="#D71920"/>
<line x1="359" y1="614.5" x2="-4.63708e-08" y2="614.5" stroke="#D71920"/>
<line x1="359" y1="633.5" x2="-4.63708e-08" y2="633.5" stroke="#D71920"/>
<line x1="359" y1="652.5" x2="-4.63708e-08" y2="652.5" stroke="#D71920"/>
<line x1="359" y1="671.5" x2="-4.63708e-08" y2="671.5" stroke="#D71920"/>
<line x1="359" y1="690.5" x2="-4.63708e-08" y2="690.5" stroke="#D71920"/>
<line x1="359" y1="709.5" x2="-4.63708e-08" y2="709.5" stroke="#D71920"/>
<line x1="359" y1="728.5" x2="-4.63708e-08" y2="728.5" stroke="#D71920"/>
<line x1="359" y1="747.5" x2="-4.63708e-08" y2="747.5" stroke="#D71920"/>
<line x1="359" y1="766.5" x2="-4.63708e-08" y2="766.5" stroke="#D71920"/>
<line x1="359" y1="785.5" x2="-4.63708e-08" y2="785.5" stroke="#D71920"/>
<line x1="359" y1="804.5" x2="-4.63708e-08" y2="804.5" stroke="#D71920"/>
<line x1="359" y1="823.5" x2="-4.63708e-08" y2="823.5" stroke="#D71920"/>
<line x1="359" y1="842.5" x2="-4.63708e-08" y2="842.5" stroke="#D71920"/>
<line x1="359" y1="861.5" x2="-4.63708e-08" y2="861.5" stroke="#D71920"/>
<line x1="359" y1="880.5" x2="-4.63708e-08" y2="880.5" stroke="#D71920"/>
<line x1="359" y1="899.5" x2="-4.63708e-08" y2="899.5" stroke="#D71920"/>
<line x1="359" y1="918.5" x2="-4.63708e-08" y2="918.5" stroke="#D71920"/>
<line x1="359" y1="937.5" x2="-4.63708e-08" y2="937.5" stroke="#D71920"/>
<line x1="359" y1="956.5" x2="-4.63708e-08" y2="956.5" stroke="#D71920"/>
<line x1="359" y1="976.5" x2="-4.63708e-08" y2="976.5" stroke="#D71920"/>
<line x1="359" y1="995.5" x2="-4.63708e-08" y2="995.5" stroke="#D71920"/>
<line x1="359" y1="1014.5" x2="-4.63708e-08" y2="1014.5" stroke="#D71920"/>
<line x1="359" y1="1033.5" x2="-4.63708e-08" y2="1033.5" stroke="#D71920"/>
<line x1="359" y1="1052.5" x2="-4.63708e-08" y2="1052.5" stroke="#D71920"/>
<line x1="359" y1="1071.5" x2="-4.63708e-08" y2="1071.5" stroke="#D71920"/>
<line x1="359" y1="1090.5" x2="-4.63708e-08" y2="1090.5" stroke="#D71920"/>
<line x1="359" y1="1109.5" x2="-4.63708e-08" y2="1109.5" stroke="#D71920"/>
<line x1="359" y1="1128.5" x2="-4.63708e-08" y2="1128.5" stroke="#D71920"/>
<line x1="359" y1="1147.5" x2="-4.63708e-08" y2="1147.5" stroke="#D71920"/>
<line x1="337.5" y1="8.55756e-08" x2="337.5" y2="1164" stroke="#D71920"/>
<line x1="316.5" y1="8.55756e-08" x2="316.5" y2="1164" stroke="#D71920"/>
<line x1="294.5" y1="8.55756e-08" x2="294.5" y2="1164" stroke="#D71920"/>
<line x1="273.5" y1="8.55756e-08" x2="273.5" y2="1164" stroke="#D71920"/>
<line x1="252.5" y1="8.55756e-08" x2="252.5" y2="1164" stroke="#D71920"/>
<line x1="230.5" y1="8.55756e-08" x2="230.5" y2="1164" stroke="#D71920"/>
<line x1="209.5" y1="8.55756e-08" x2="209.5" y2="1164" stroke="#D71920"/>
<line x1="188.5" y1="8.55756e-08" x2="188.5" y2="1164" stroke="#D71920"/>
<line x1="166.5" y1="8.55756e-08" x2="166.5" y2="1164" stroke="#D71920"/>
<line x1="145.5" y1="8.55756e-08" x2="145.5" y2="1164" stroke="#D71920"/>
<line x1="124.5" y1="8.55756e-08" x2="124.5" y2="1164" stroke="#D71920"/>
<line x1="102.5" y1="8.55756e-08" x2="102.5" y2="1164" stroke="#D71920"/>
<line x1="81.5" y1="8.55756e-08" x2="81.4999" y2="1164" stroke="#D71920"/>
<line x1="59.5" y1="8.55756e-08" x2="59.4999" y2="1164" stroke="#D71920"/>
<line x1="38.5" y1="8.55756e-08" x2="38.4999" y2="1164" stroke="#D71920"/>
<line x1="17.5" y1="8.55756e-08" x2="17.4999" y2="1164" stroke="#D71920"/>
</g>
</svg>
