<svg width="489" height="63" viewBox="0 0 489 63" fill="none" xmlns="http://www.w3.org/2000/svg">
<path d="M0 63L36.067 0H65.749L29.6819 63H0Z" fill="#C70C12"/>
<path d="M452.933 63L489 0H459.318L423.251 63H452.933Z" fill="#C70C12"/>
<path d="M392.469 63L428.536 0H398.854L362.787 63H392.469Z" fill="#C70C12"/>
<path d="M332.004 63L368.071 0H338.389L302.322 63H332.004Z" fill="#C70C12"/>
<path d="M271.54 63L307.607 0H277.925L241.858 63H271.54Z" fill="#C70C12"/>
<path d="M211.075 63L247.142 0H217.46L181.393 63H211.075Z" fill="#C70C12"/>
<path d="M150.611 63L186.678 0H156.996L120.929 63H150.611Z" fill="#C70C12"/>
<path d="M90.1464 63L126.213 0H96.5315L60.4644 63H90.1464Z" fill="#C70C12"/>
</svg>
