<svg xmlns="http://www.w3.org/2000/svg" xmlns:xlink="http://www.w3.org/1999/xlink"><symbol id="sprite-arrow-down" viewBox="0 0 9 7"><path d="M1.707.543 4.5 3.336 7.293.543a1 1 0 0 1 1.414 1.414l-3.5 3.5a1 1 0 0 1-1.414 0l-3.5-3.5A1 1 0 0 1 1.707.543"/></symbol><use xlink:href="#sprite-arrow-down" width="9" height="7" y="0"/><view id="sprite-arrow-down-view" viewBox="0 0 9 7"/><symbol id="sprite-call" viewBox="0 0 26 26"><path d="M22.654 26h-.268c-6.023 0-11.645-2.255-15.794-6.367C2.309 15.388.033 9.683.033 3.714c-.133-.928.134-1.857.804-2.52A3.67 3.67 0 0 1 3.38.133h3.614c.803 0 1.606.265 2.275.796 1.606 1.459 2.41 5.438 2.142 7.163-.268 1.194-1.205 1.99-1.874 2.653 1.472 2.388 3.48 4.245 5.755 5.704.67-.796 1.473-1.592 2.677-1.857 1.74-.398 5.89.398 7.228 2.122.535.664.803 1.46.803 2.255v3.582c0 .929-.401 1.857-1.07 2.52-.67.531-1.473.929-2.276.929m-.268-2.122q.603 0 1.205-.398c.267-.266.535-.664.535-1.062v-3.581c0-.398-.134-.663-.401-.929-.803-.928-4.016-1.724-5.354-1.459-.536.133-1.205.796-1.74 1.326l-.536.531c-.267.265-.803.398-1.204.133-3.213-1.857-5.89-4.378-7.63-7.561-.267-.398-.134-.929.134-1.194.268 0 .536-.266.67-.398.535-.53 1.204-1.062 1.338-1.725.268-1.194-.536-4.377-1.473-5.173-.267-.266-.535-.398-.936-.266H3.38c-.402 0-.803.133-1.071.398-.268.266-.402.664-.268 1.062 0 5.571 2.142 10.744 5.89 14.459 3.747 3.847 8.967 5.837 14.455 5.837m-2.008-13.133c-.535 0-.937-.265-.937-.796-.267-.929-.535-1.725-1.07-2.255-.536-.53-1.339-.929-2.142-1.061-.535-.133-.937-.664-.803-1.194s.67-.929 1.205-.796c.803.265 2.141.663 3.078 1.724a5.54 5.54 0 0 1 1.606 3.184c.134.53-.267 1.061-.803 1.194 0-.133-.134 0-.134 0m4.685-.663a.91.91 0 0 1-.937-.929c-.134-1.724-1.07-3.316-2.41-4.775-1.338-1.327-3.078-2.123-4.818-2.388-.535 0-.937-.53-.937-1.061S16.497 0 17.032 0c2.142.265 4.283 1.194 5.89 2.918 1.74 1.725 2.677 3.715 2.944 5.837.268.663-.134 1.194-.803 1.327"/></symbol><use xlink:href="#sprite-call" width="26" height="26" y="7"/><view id="sprite-call-view" viewBox="0 7 26 26"/><symbol id="sprite-facebook" viewBox="0 0 24 24"><path d="M21.429 0H2.57A2.57 2.57 0 0 0 0 2.571V21.43A2.57 2.57 0 0 0 2.571 24h7.353v-8.16H6.55V12h3.375V9.073c0-3.33 1.982-5.169 5.018-5.169 1.454 0 2.974.26 2.974.26V7.43h-1.675c-1.65 0-2.165 1.025-2.165 2.075V12h3.685l-.59 3.84h-3.095V24h7.353A2.57 2.57 0 0 0 24 21.429V2.57A2.57 2.57 0 0 0 21.429 0"/></symbol><use xlink:href="#sprite-facebook" width="24" height="24" y="33"/><view id="sprite-facebook-view" viewBox="0 33 24 24"/><symbol id="sprite-instagram" viewBox="0 0 24 24"><path d="M12 7.598a4.404 4.404 0 0 0 0 8.808A4.413 4.413 0 0 0 16.406 12 4.41 4.41 0 0 0 12 7.598"/><path d="M18.643 0H5.357A5.365 5.365 0 0 0 0 5.357v13.286A5.36 5.36 0 0 0 5.357 24h13.286C21.6 24 24 21.6 24 18.643V5.357C24 2.405 21.6 0 18.643 0M12 19.776c-4.286 0-7.776-3.49-7.776-7.776S7.714 4.229 12 4.229 19.776 7.714 19.776 12s-3.49 7.776-7.776 7.776M19.94 5.64a1.645 1.645 0 0 1-1.647-1.642c0-.907.739-1.646 1.646-1.646s1.647.74 1.647 1.646c0 .908-.74 1.642-1.647 1.642"/></symbol><use xlink:href="#sprite-instagram" width="24" height="24" y="57"/><view id="sprite-instagram-view" viewBox="0 57 24 24"/><symbol id="sprite-linkedin" viewBox="0 0 24 24"><path fill-rule="evenodd" clip-rule="evenodd" d="M21.333 24H2.667A2.667 2.667 0 0 1 0 21.333V2.667A2.667 2.667 0 0 1 2.667 0h18.666A2.667 2.667 0 0 1 24 2.667v18.666A2.667 2.667 0 0 1 21.333 24m-4.228-3.333h3.562V13.35c0-3.095-1.755-4.592-4.206-4.592s-3.484 1.91-3.484 1.91V9.11H9.544v11.556h3.433V14.6c0-1.626.748-2.593 2.18-2.593 1.316 0 1.948.93 1.948 2.593zM3.333 5.466c0 1.177.948 2.132 2.117 2.132s2.116-.955 2.116-2.132A2.124 2.124 0 0 0 5.45 3.333c-1.17 0-2.117.955-2.117 2.133m3.923 15.2H3.678V9.112h3.578z"/></symbol><use xlink:href="#sprite-linkedin" width="24" height="24" y="81"/><view id="sprite-linkedin-view" viewBox="0 81 24 24"/><symbol id="sprite-location" viewBox="0 0 14 19"><path d="M7 .5a7 7 0 0 0-7 7c0 5.667 7 11 7 11s7-5.333 7-11a7 7 0 0 0-7-7m0 10.333a3.334 3.334 0 1 1 0-6.667 3.334 3.334 0 0 1 0 6.667"/></symbol><use xlink:href="#sprite-location" width="14" height="19" y="105"/><view id="sprite-location-view" viewBox="0 105 14 19"/><symbol id="sprite-mail" viewBox="0 0 19 13"><path d="M9.567 8.73a1.04 1.04 0 0 1-1.068-.001L0 3.667v6.729C0 11.833 1.196 13 2.67 13h12.748c1.473 0 2.669-1.167 2.669-2.604v-6.73z"/><path d="M15.418 0H2.669C1.41 0 .342.875.085 2.042l8.97 5.333 8.947-5.333C17.745.875 16.678 0 15.418 0"/></symbol><use xlink:href="#sprite-mail" width="19" height="13" y="124"/><view id="sprite-mail-view" viewBox="0 124 19 13"/><symbol id="sprite-models" viewBox="0 0 24 24"><path fill-rule="evenodd" clip-rule="evenodd" d="M16.32 16.08a2.4 2.4 0 1 1-4.8 0 2.4 2.4 0 0 1 4.8 0m-1.92 0a.48.48 0 1 1-.96 0 .48.48 0 0 1 .96 0"/><path fill-rule="evenodd" clip-rule="evenodd" d="M23.946 13.44c0 1.59-1.104 2.92-2.586 3.27v2.73h1.44a1.2 1.2 0 0 1 1.2 1.2v2.16a1.2 1.2 0 0 1-1.2 1.2H1.2A1.2 1.2 0 0 1 0 22.8v-2.16a1.2 1.2 0 0 1 1.2-1.2h1.2V16.8h-.24A2.16 2.16 0 0 1 0 14.64V2.16A2.16 2.16 0 0 1 2.16 0h5.05c.473 0 .937.058 1.384.169a6.72 6.72 0 0 1 4.293 3.139l1.716 2.912h4.783a4.56 4.56 0 0 1 4.56 4.56zM1.92 2.16a.24.24 0 0 1 .24-.24h4.08v5.04a1.2 1.2 0 0 0 1.2 1.2c3.983 0 7.964-.02 11.946-.02a2.64 2.64 0 0 1 2.64 2.64v2.66a1.44 1.44 0 0 1-1.44 1.44h-1.124c-.212 0-.364-.259-.422-.43a5.46 5.46 0 0 0-10.336 0c-.058.171-.21.43-.421.43H2.16a.24.24 0 0 1-.24-.24zm15.302 12.909c.286.839 1.066 1.72 2.218 1.73v2.641H4.32V16.8h3.963c1.163 0 1.951-.887 2.239-1.731a3.54 3.54 0 0 1 6.7 0M12.386 6.24l-1.153-1.957A4.8 4.8 0 0 0 8.16 2.039V6.24zm9.694 15.84v-.72H1.92v.72z"/></symbol><use xlink:href="#sprite-models" width="24" height="24" y="137"/><view id="sprite-models-view" viewBox="0 137 24 24"/><symbol id="sprite-nav-left" viewBox="0 0 13 18"><path d="m11.375 17.78-10-8a1 1 0 0 1 0-1.56l10-8a1 1 0 0 1 1.25 1.56L3.6 9l9.024 7.22a1 1 0 1 1-1.25 1.56"/></symbol><use xlink:href="#sprite-nav-left" width="13" height="18" y="161"/><view id="sprite-nav-left-view" viewBox="0 161 13 18"/><symbol id="sprite-nav-right" viewBox="0 0 13 18"><path d="M.375 16.22 9.4 9 .375 1.78A1 1 0 1 1 1.625.22l10 8a1 1 0 0 1 0 1.56l-10 8a1 1 0 0 1-1.25-1.56"/></symbol><use xlink:href="#sprite-nav-right" width="13" height="18" y="179"/><view id="sprite-nav-right-view" viewBox="0 179 13 18"/><symbol id="sprite-search" viewBox="0 0 26 26"><path d="m25.549 23.37-4.998-4.997a11.35 11.35 0 0 0 2.345-6.925c0-3.058-1.19-5.933-3.354-8.095A11.38 11.38 0 0 0 11.445 0a11.38 11.38 0 0 0-8.097 3.353c-4.464 4.464-4.464 11.727 0 16.19a11.38 11.38 0 0 0 8.097 3.354c2.538 0 4.943-.83 6.926-2.345l4.998 4.997a1.54 1.54 0 0 0 2.18 0 1.54 1.54 0 0 0 0-2.18M5.528 17.365c-3.263-3.262-3.263-8.57 0-11.833a8.32 8.32 0 0 1 5.917-2.45c2.236 0 4.337.87 5.918 2.45a8.3 8.3 0 0 1 2.451 5.916 8.3 8.3 0 0 1-2.451 5.917 8.32 8.32 0 0 1-5.918 2.45 8.32 8.32 0 0 1-5.917-2.45"/></symbol><use xlink:href="#sprite-search" width="26" height="26" y="197"/><view id="sprite-search-view" viewBox="0 197 26 26"/><symbol id="sprite-sertificate" viewBox="0 0 30 36"><path d="M23.245 15.75c-3.449 0-6.255 2.775-6.255 6.187 0 3.411 2.806 6.187 6.255 6.187s6.255-2.776 6.255-6.187-2.806-6.188-6.255-6.188m2.652 5.194-2.274 3.375a1.145 1.145 0 0 1-1.578.311l-1.706-1.125a1.12 1.12 0 0 1-.314-1.56 1.145 1.145 0 0 1 1.577-.311l.759.5c1.814-2.69 1.716-2.616 2.021-2.788 1.036-.593 2.18.609 1.515 1.598m-7.77 7.738v6.192c0 .862.944 1.405 1.702.976l3.416-1.93 3.416 1.93c.755.428 1.702-.112 1.702-.976v-6.192a8.58 8.58 0 0 1-10.235 0m7.393-14.877V2.443C25.52 1.096 24.412 0 23.05 0H2.97C1.608 0 .5 1.096.5 2.443v26.05c0 1.347 1.108 2.443 2.47 2.443h12.883c0-4.84-.008-4.541.018-4.764-3.807-6.456 2.255-14.398 9.649-12.367M7.324 5.625h9.666a1.13 1.13 0 0 1 1.138 1.125 1.13 1.13 0 0 1-1.138 1.125H7.324A1.13 1.13 0 0 1 6.186 6.75a1.13 1.13 0 0 1 1.138-1.125m5.686 11.25H7.324a1.13 1.13 0 0 1-1.138-1.126 1.13 1.13 0 0 1 1.138-1.125h5.686c.628 0 1.137.504 1.137 1.125a1.13 1.13 0 0 1-1.137 1.125m-5.686-4.5a1.13 1.13 0 0 1-1.138-1.125 1.13 1.13 0 0 1 1.138-1.125h9.666a1.13 1.13 0 0 1 1.138 1.125 1.13 1.13 0 0 1-1.138 1.124z"/></symbol><use xlink:href="#sprite-sertificate" width="30" height="36" y="223"/><view id="sprite-sertificate-view" viewBox="0 223 30 36"/><symbol id="sprite-whatsapp" viewBox="0 0 24 24"><path d="M12 0C5.373 0 0 5.373 0 12c0 2.251.632 4.35 1.71 6.15L.108 24l5.975-1.568A11.93 11.93 0 0 0 12 24c6.627 0 12-5.373 12-12S18.627 0 12 0M7.893 6.402c.195 0 .395 0 .568.008.214.005.447.02.67.514.265.586.842 2.056.916 2.205s.126.324.023.52c-.098.2-.149.32-.293.498-.149.172-.312.385-.447.515-.149.15-.303.313-.13.61.171.297.769 1.27 1.652 2.056 1.135 1.014 2.092 1.326 2.39 1.475s.47.125.643-.075c.177-.194.743-.864.943-1.162.195-.298.394-.246.664-.148.274.098 1.735.818 2.033.967s.494.223.569.344c.077.125.077.72-.17 1.414-.247.693-1.46 1.363-2.004 1.41-.55.05-1.061.246-3.568-.74-3.024-1.191-4.932-4.289-5.08-4.489-.15-.195-1.211-1.61-1.211-3.07 0-1.465.768-2.183 1.037-2.48a1.1 1.1 0 0 1 .795-.372"/></symbol><use xlink:href="#sprite-whatsapp" width="24" height="24" y="259"/><view id="sprite-whatsapp-view" viewBox="0 259 24 24"/><symbol id="sprite-youtube" viewBox="0 0 24 18"><path fill-rule="evenodd" clip-rule="evenodd" d="M22.692 1.802c.372.376.64.846.778 1.36.793 3.227.61 8.324.016 11.676a3.06 3.06 0 0 1-.78 1.36 3 3 0 0 1-1.344.788c-1.863.514-9.359.514-9.359.514s-7.496 0-9.358-.514a3 3 0 0 1-1.345-.788 3.06 3.06 0 0 1-.78-1.36c-.797-3.213-.578-8.313-.015-11.66a3.06 3.06 0 0 1 .78-1.36 3 3 0 0 1 1.344-.789C4.492.516 11.988.5 11.988.5s7.496 0 9.358.514a3 3 0 0 1 1.346.788M15.529 9l-5.647 3.542V5.458z"/></symbol><use xlink:href="#sprite-youtube" width="24" height="18" y="283"/><view id="sprite-youtube-view" viewBox="0 283 24 18"/></svg>