<svg xmlns="http://www.w3.org/2000/svg" xmlns:xlink="http://www.w3.org/1999/xlink"><symbol id="sprite-arrow-down" viewBox="0 0 9 7"><path d="M1.707.543 4.5 3.336 7.293.543a1 1 0 0 1 1.414 1.414l-3.5 3.5a1 1 0 0 1-1.414 0l-3.5-3.5A1 1 0 0 1 1.707.543"/></symbol><use xlink:href="#sprite-arrow-down" width="9" height="7" y="0"/><view id="sprite-arrow-down-view" viewBox="0 0 9 7"/><symbol id="sprite-call" viewBox="0 0 26 26"><path d="M22.654 26h-.268c-6.023 0-11.645-2.255-15.794-6.367C2.309 15.388.033 9.683.033 3.714c-.133-.928.134-1.857.804-2.52A3.67 3.67 0 0 1 3.38.133h3.614c.803 0 1.606.265 2.275.796 1.606 1.459 2.41 5.438 2.142 7.163-.268 1.194-1.205 1.99-1.874 2.653 1.472 2.388 3.48 4.245 5.755 5.704.67-.796 1.473-1.592 2.677-1.857 1.74-.398 5.89.398 7.228 2.122.535.664.803 1.46.803 2.255v3.582c0 .929-.401 1.857-1.07 2.52-.67.531-1.473.929-2.276.929m-.268-2.122q.603 0 1.205-.398c.267-.266.535-.664.535-1.062v-3.581c0-.398-.134-.663-.401-.929-.803-.928-4.016-1.724-5.354-1.459-.536.133-1.205.796-1.74 1.326l-.536.531c-.267.265-.803.398-1.204.133-3.213-1.857-5.89-4.378-7.63-7.561-.267-.398-.134-.929.134-1.194.268 0 .536-.266.67-.398.535-.53 1.204-1.062 1.338-1.725.268-1.194-.536-4.377-1.473-5.173-.267-.266-.535-.398-.936-.266H3.38c-.402 0-.803.133-1.071.398-.268.266-.402.664-.268 1.062 0 5.571 2.142 10.744 5.89 14.459 3.747 3.847 8.967 5.837 14.455 5.837m-2.008-13.133c-.535 0-.937-.265-.937-.796-.267-.929-.535-1.725-1.07-2.255-.536-.53-1.339-.929-2.142-1.061-.535-.133-.937-.664-.803-1.194s.67-.929 1.205-.796c.803.265 2.141.663 3.078 1.724a5.54 5.54 0 0 1 1.606 3.184c.134.53-.267 1.061-.803 1.194 0-.133-.134 0-.134 0m4.685-.663a.91.91 0 0 1-.937-.929c-.134-1.724-1.07-3.316-2.41-4.775-1.338-1.327-3.078-2.123-4.818-2.388-.535 0-.937-.53-.937-1.061S16.497 0 17.032 0c2.142.265 4.283 1.194 5.89 2.918 1.74 1.725 2.677 3.715 2.944 5.837.268.663-.134 1.194-.803 1.327"/></symbol><use xlink:href="#sprite-call" width="26" height="26" y="7"/><view id="sprite-call-view" viewBox="0 7 26 26"/><symbol id="sprite-car" viewBox="0 0 36 32"><path d="M35.69 14.527 28.747 6.46a3.86 3.86 0 0 0-2.927-1.34h-2.677c-.682 0-1.336.27-1.818.75a2.55 2.55 0 0 0-.754 1.81V19.2c0 .34-.135.665-.376.905a1.3 1.3 0 0 1-.91.375H0v3.84c0 .679.27 1.33.753 1.81.482.48 1.136.75 1.818.75h1.286C3.857 29.704 6.164 32 9 32s5.143-2.296 5.143-5.12h6.428c0 2.824 2.307 5.12 5.143 5.12 2.837 0 5.143-2.296 5.143-5.12h2.572c.682 0 1.336-.27 1.818-.75S36 25 36 24.32v-8.959c0-.306-.11-.601-.31-.834M9 29.44a2.57 2.57 0 0 1-2.571-2.56c0-1.291 1.105-2.56 2.571-2.56 1.46 0 2.571 1.263 2.571 2.56A2.57 2.57 0 0 1 9 29.44m16.714 0a2.57 2.57 0 0 1-2.571-2.56c0-1.291 1.106-2.56 2.571-2.56 1.46 0 2.572 1.263 2.572 2.56a2.57 2.57 0 0 1-2.572 2.56m5.875-14.08h-7.16v-6.4h2.262c.196 0 .38.088.502.24l4.604 5.73a.264.264 0 0 1-.067.39.27.27 0 0 1-.141.04"/><path d="M18 1.28v15.36a1.287 1.287 0 0 1-1.286 1.28H1.286c-.341 0-.668-.135-.91-.375A1.28 1.28 0 0 1 0 16.64V1.28A1.287 1.287 0 0 1 1.286 0h3.857v8.319a.64.64 0 0 0 .37.58.65.65 0 0 0 .684-.089L9 6.4l2.803 2.41a.644.644 0 0 0 1.054-.491V0h3.857A1.28 1.28 0 0 1 18 1.28"/></symbol><use xlink:href="#sprite-car" width="36" height="32" y="33"/><view id="sprite-car-view" viewBox="0 33 36 32"/><symbol id="sprite-checkbox" viewBox="0 0 13 14"><path d="M2 6.126 5.325 9.1 9.671.804a1.5 1.5 0 0 1 2.658 1.392l-5.238 10a1.5 1.5 0 0 1-2.329.422L.001 8.363a1.5 1.5 0 0 1 1.998-2.237"/></symbol><use xlink:href="#sprite-checkbox" width="13" height="14" y="65"/><view id="sprite-checkbox-view" viewBox="0 65 13 14"/><symbol id="sprite-close" viewBox="0 0 16 16"><path d="m14.359 15.78-6.36-6.37-6.36 6.37-1.42-1.42L6.589 8 .219 1.64 1.639.22l6.36 6.37 6.36-6.36 1.41 1.41L9.409 8l6.36 6.36z"/></symbol><use xlink:href="#sprite-close" width="16" height="16" y="79"/><view id="sprite-close-view" viewBox="0 79 16 16"/><symbol id="sprite-download" viewBox="0 0 16 21"><path d="M16 7.559h-4.571V.5H4.57v7.059H0l8 8.235zM0 18.147V20.5h16v-2.353z"/></symbol><use xlink:href="#sprite-download" width="16" height="21" y="95"/><view id="sprite-download-view" viewBox="0 95 16 21"/><symbol id="sprite-email" viewBox="0 0 30 24"><path d="M27 0H3A2.996 2.996 0 0 0 .015 3L0 21c0 1.65 1.35 3 3 3h24c1.65 0 3-1.35 3-3V3c0-1.65-1.35-3-3-3m0 6-12 7.5L3 6V3l12 7.5L27 3z"/></symbol><use xlink:href="#sprite-email" width="30" height="24" y="116"/><view id="sprite-email-view" viewBox="0 116 30 24"/><symbol id="sprite-facebook" viewBox="0 0 24 24"><path d="M21.429 0H2.57A2.57 2.57 0 0 0 0 2.571V21.43A2.57 2.57 0 0 0 2.571 24h7.353v-8.16H6.55V12h3.375V9.073c0-3.33 1.982-5.169 5.018-5.169 1.454 0 2.974.26 2.974.26V7.43h-1.675c-1.65 0-2.165 1.025-2.165 2.075V12h3.685l-.59 3.84h-3.095V24h7.353A2.57 2.57 0 0 0 24 21.429V2.57A2.57 2.57 0 0 0 21.429 0"/></symbol><use xlink:href="#sprite-facebook" width="24" height="24" y="140"/><view id="sprite-facebook-view" viewBox="0 140 24 24"/><symbol id="sprite-fullscreen" viewBox="0 0 20 20"><path d="M18 10V2h-8a1 1 0 0 1 0-2h9a1 1 0 0 1 1 1v9a1 1 0 0 1-2 0M2 10v8h8a1 1 0 0 1 0 2H1a1 1 0 0 1-1-1v-9a1 1 0 0 1 2 0"/></symbol><use xlink:href="#sprite-fullscreen" width="20" height="20" y="164"/><view id="sprite-fullscreen-view" viewBox="0 164 20 20"/><symbol id="sprite-happy" viewBox="0 0 36 36"><path fill-rule="evenodd" clip-rule="evenodd" d="M35.5 18a17.5 17.5 0 1 0-35 0 17.5 17.5 0 0 0 35 0m-8.9-5.12a2.56 2.56 0 0 1-2.555 2.56h-.005a2.562 2.562 0 0 1-.008-5.122h.008a2.56 2.56 0 0 1 2.56 2.562m-12.077 0a2.56 2.56 0 0 1-2.556 2.56h-.007a2.562 2.562 0 0 1-.005-5.122h.005a2.563 2.563 0 0 1 2.563 2.562m-3.55 7.02a1.563 1.563 0 1 0-3.016.813 10.408 10.408 0 0 0 20.095 0 1.562 1.562 0 1 0-3.017-.813 7.283 7.283 0 0 1-14.062 0"/></symbol><use xlink:href="#sprite-happy" width="36" height="36" y="184"/><view id="sprite-happy-view" viewBox="0 184 36 36"/><symbol id="sprite-home" viewBox="0 0 21 21"><path d="M20.771 11.3a2.1 2.1 0 0 1-.81.801c-.337.187-.72.277-1.104.26h-.263v5.993c0 .563-.222 1.104-.616 1.502-.395.399-.93.623-1.488.623h-1.777a2.1 2.1 0 0 1-1.488-.623 2.14 2.14 0 0 1-.616-1.502v-2.03c0-.563-.222-1.104-.616-1.502a2.093 2.093 0 0 0-2.975 0 2.14 2.14 0 0 0-.617 1.503v2.05c0 .564-.221 1.104-.616 1.503-.394.398-.93.622-1.487.622H4.52a2.1 2.1 0 0 1-1.487-.622 2.14 2.14 0 0 1-.617-1.503v-5.992h-.263a2.1 2.1 0 0 1-1.104-.26 2.1 2.1 0 0 1-.81-.803A2.144 2.144 0 0 1 .67 8.781l8.415-7.766a2.09 2.09 0 0 1 2.746 0l8.467 7.787a2.07 2.07 0 0 1 .473 2.497"/></symbol><use xlink:href="#sprite-home" width="21" height="21" y="220"/><view id="sprite-home-view" viewBox="0 220 21 21"/><symbol id="sprite-instagram" viewBox="0 0 24 24"><path d="M12 7.598a4.404 4.404 0 0 0 0 8.808A4.413 4.413 0 0 0 16.406 12 4.41 4.41 0 0 0 12 7.598"/><path d="M18.643 0H5.357A5.365 5.365 0 0 0 0 5.357v13.286A5.36 5.36 0 0 0 5.357 24h13.286C21.6 24 24 21.6 24 18.643V5.357C24 2.405 21.6 0 18.643 0M12 19.776c-4.286 0-7.776-3.49-7.776-7.776S7.714 4.229 12 4.229 19.776 7.714 19.776 12s-3.49 7.776-7.776 7.776M19.94 5.64a1.645 1.645 0 0 1-1.647-1.642c0-.907.739-1.646 1.646-1.646s1.647.74 1.647 1.646c0 .908-.74 1.642-1.647 1.642"/></symbol><use xlink:href="#sprite-instagram" width="24" height="24" y="241"/><view id="sprite-instagram-view" viewBox="0 241 24 24"/><symbol id="sprite-linkedin" viewBox="0 0 24 24"><path fill-rule="evenodd" clip-rule="evenodd" d="M21.333 24H2.667A2.667 2.667 0 0 1 0 21.333V2.667A2.667 2.667 0 0 1 2.667 0h18.666A2.667 2.667 0 0 1 24 2.667v18.666A2.667 2.667 0 0 1 21.333 24m-4.228-3.333h3.562V13.35c0-3.095-1.755-4.592-4.206-4.592s-3.484 1.91-3.484 1.91V9.11H9.544v11.556h3.433V14.6c0-1.626.748-2.593 2.18-2.593 1.316 0 1.948.93 1.948 2.593zM3.333 5.466c0 1.177.948 2.132 2.117 2.132s2.116-.955 2.116-2.132A2.124 2.124 0 0 0 5.45 3.333c-1.17 0-2.117.955-2.117 2.133m3.923 15.2H3.678V9.112h3.578z"/></symbol><use xlink:href="#sprite-linkedin" width="24" height="24" y="265"/><view id="sprite-linkedin-view" viewBox="0 265 24 24"/><symbol id="sprite-location" viewBox="0 0 14 19"><path d="M7 .5a7 7 0 0 0-7 7c0 5.667 7 11 7 11s7-5.333 7-11a7 7 0 0 0-7-7m0 10.333a3.334 3.334 0 1 1 0-6.667 3.334 3.334 0 0 1 0 6.667"/></symbol><use xlink:href="#sprite-location" width="14" height="19" y="289"/><view id="sprite-location-view" viewBox="0 289 14 19"/><symbol id="sprite-mail" viewBox="0 0 19 13"><path d="M9.567 8.73a1.04 1.04 0 0 1-1.068-.001L0 3.667v6.729C0 11.833 1.196 13 2.67 13h12.748c1.473 0 2.669-1.167 2.669-2.604v-6.73z"/><path d="M15.418 0H2.669C1.41 0 .342.875.085 2.042l8.97 5.333 8.947-5.333C17.745.875 16.678 0 15.418 0"/></symbol><use xlink:href="#sprite-mail" width="19" height="13" y="308"/><view id="sprite-mail-view" viewBox="0 308 19 13"/><symbol id="sprite-models" viewBox="0 0 24 24"><path fill-rule="evenodd" clip-rule="evenodd" d="M16.32 16.08a2.4 2.4 0 1 1-4.8 0 2.4 2.4 0 0 1 4.8 0m-1.92 0a.48.48 0 1 1-.96 0 .48.48 0 0 1 .96 0"/><path fill-rule="evenodd" clip-rule="evenodd" d="M23.946 13.44c0 1.59-1.104 2.92-2.586 3.27v2.73h1.44a1.2 1.2 0 0 1 1.2 1.2v2.16a1.2 1.2 0 0 1-1.2 1.2H1.2A1.2 1.2 0 0 1 0 22.8v-2.16a1.2 1.2 0 0 1 1.2-1.2h1.2V16.8h-.24A2.16 2.16 0 0 1 0 14.64V2.16A2.16 2.16 0 0 1 2.16 0h5.05c.473 0 .937.058 1.384.169a6.72 6.72 0 0 1 4.293 3.139l1.716 2.912h4.783a4.56 4.56 0 0 1 4.56 4.56zM1.92 2.16a.24.24 0 0 1 .24-.24h4.08v5.04a1.2 1.2 0 0 0 1.2 1.2c3.983 0 7.964-.02 11.946-.02a2.64 2.64 0 0 1 2.64 2.64v2.66a1.44 1.44 0 0 1-1.44 1.44h-1.124c-.212 0-.364-.259-.422-.43a5.46 5.46 0 0 0-10.336 0c-.058.171-.21.43-.421.43H2.16a.24.24 0 0 1-.24-.24zm15.302 12.909c.286.839 1.066 1.72 2.218 1.73v2.641H4.32V16.8h3.963c1.163 0 1.951-.887 2.239-1.731a3.54 3.54 0 0 1 6.7 0M12.386 6.24l-1.153-1.957A4.8 4.8 0 0 0 8.16 2.039V6.24zm9.694 15.84v-.72H1.92v.72z"/></symbol><use xlink:href="#sprite-models" width="24" height="24" y="321"/><view id="sprite-models-view" viewBox="0 321 24 24"/><symbol id="sprite-nav-left" viewBox="0 0 13 18"><path d="m11.375 17.78-10-8a1 1 0 0 1 0-1.56l10-8a1 1 0 0 1 1.25 1.56L3.6 9l9.024 7.22a1 1 0 1 1-1.25 1.56"/></symbol><use xlink:href="#sprite-nav-left" width="13" height="18" y="345"/><view id="sprite-nav-left-view" viewBox="0 345 13 18"/><symbol id="sprite-nav-right" viewBox="0 0 13 18"><path d="M.375 16.22 9.4 9 .375 1.78A1 1 0 1 1 1.625.22l10 8a1 1 0 0 1 0 1.56l-10 8a1 1 0 0 1-1.25-1.56"/></symbol><use xlink:href="#sprite-nav-right" width="13" height="18" y="363"/><view id="sprite-nav-right-view" viewBox="0 363 13 18"/><symbol id="sprite-search" viewBox="0 0 26 26"><path d="m25.549 23.37-4.998-4.997a11.35 11.35 0 0 0 2.345-6.925c0-3.058-1.19-5.933-3.354-8.095A11.38 11.38 0 0 0 11.445 0a11.38 11.38 0 0 0-8.097 3.353c-4.464 4.464-4.464 11.727 0 16.19a11.38 11.38 0 0 0 8.097 3.354c2.538 0 4.943-.83 6.926-2.345l4.998 4.997a1.54 1.54 0 0 0 2.18 0 1.54 1.54 0 0 0 0-2.18M5.528 17.365c-3.263-3.262-3.263-8.57 0-11.833a8.32 8.32 0 0 1 5.917-2.45c2.236 0 4.337.87 5.918 2.45a8.3 8.3 0 0 1 2.451 5.916 8.3 8.3 0 0 1-2.451 5.917 8.32 8.32 0 0 1-5.918 2.45 8.32 8.32 0 0 1-5.917-2.45"/></symbol><use xlink:href="#sprite-search" width="26" height="26" y="381"/><view id="sprite-search-view" viewBox="0 381 26 26"/><symbol id="sprite-sertificate" viewBox="0 0 30 36"><path d="M23.245 15.75c-3.449 0-6.255 2.775-6.255 6.187 0 3.411 2.806 6.187 6.255 6.187s6.255-2.776 6.255-6.187-2.806-6.188-6.255-6.188m2.652 5.194-2.274 3.375a1.145 1.145 0 0 1-1.578.311l-1.706-1.125a1.12 1.12 0 0 1-.314-1.56 1.145 1.145 0 0 1 1.577-.311l.759.5c1.814-2.69 1.716-2.616 2.021-2.788 1.036-.593 2.18.609 1.515 1.598m-7.77 7.738v6.192c0 .862.944 1.405 1.702.976l3.416-1.93 3.416 1.93c.755.428 1.702-.112 1.702-.976v-6.192a8.58 8.58 0 0 1-10.235 0m7.393-14.877V2.443C25.52 1.096 24.412 0 23.05 0H2.97C1.608 0 .5 1.096.5 2.443v26.05c0 1.347 1.108 2.443 2.47 2.443h12.883c0-4.84-.008-4.541.018-4.764-3.807-6.456 2.255-14.398 9.649-12.367M7.324 5.625h9.666a1.13 1.13 0 0 1 1.138 1.125 1.13 1.13 0 0 1-1.138 1.125H7.324A1.13 1.13 0 0 1 6.186 6.75a1.13 1.13 0 0 1 1.138-1.125m5.686 11.25H7.324a1.13 1.13 0 0 1-1.138-1.126 1.13 1.13 0 0 1 1.138-1.125h5.686c.628 0 1.137.504 1.137 1.125a1.13 1.13 0 0 1-1.137 1.125m-5.686-4.5a1.13 1.13 0 0 1-1.138-1.125 1.13 1.13 0 0 1 1.138-1.125h9.666a1.13 1.13 0 0 1 1.138 1.125 1.13 1.13 0 0 1-1.138 1.124z"/></symbol><use xlink:href="#sprite-sertificate" width="30" height="36" y="407"/><view id="sprite-sertificate-view" viewBox="0 407 30 36"/><symbol id="sprite-service" viewBox="0 0 36 36"><path fill-rule="evenodd" clip-rule="evenodd" d="M34.35 20.65c-3.446 0-5.175 4.226-2.738 6.692a1.174 1.174 0 0 1 0 1.646l-2.475 2.505a1.14 1.14 0 0 1-1.626 0c-1.354-1.37-3.245-1.439-4.658-.63v-4.681a9.8 9.8 0 0 0 4.778-8.44c0-5.403-4.327-9.782-9.663-9.782s-9.663 4.38-9.663 9.781a9.8 9.8 0 0 0 4.842 8.48v4.639c-1.412-.808-3.303-.74-4.658.633a1.14 1.14 0 0 1-1.626 0l-2.475-2.505a1.174 1.174 0 0 1 0-1.646c2.437-2.466.708-6.692-2.738-6.692-.636 0-1.15-.522-1.15-1.164v-3.543c0-.643.514-1.164 1.15-1.164 3.446 0 5.175-4.226 2.738-6.692a1.174 1.174 0 0 1 0-1.646l2.475-2.505a1.14 1.14 0 0 1 1.626 0c2.436 2.466 6.612.716 6.612-2.772A1.155 1.155 0 0 1 16.25 0h3.499c.635 0 1.15.52 1.15 1.164 0 3.488 4.174 5.238 6.611 2.772a1.14 1.14 0 0 1 1.626 0l2.475 2.505a1.174 1.174 0 0 1 0 1.646c-2.437 2.466-.708 6.692 2.738 6.692.636 0 1.15.521 1.15 1.164v3.543c0 .642-.514 1.163-1.15 1.163m-20.058-9.336a7.46 7.46 0 0 0-3.645 6.427 7.44 7.44 0 0 0 4.756 6.965V36h5.194V24.706a7.44 7.44 0 0 0 4.755-6.965 7.46 7.46 0 0 0-3.644-6.427v7.154L18 20.634l-3.708-2.166z"/></symbol><use xlink:href="#sprite-service" width="36" height="36" y="443"/><view id="sprite-service-view" viewBox="0 443 36 36"/><symbol id="sprite-settings" viewBox="0 0 36 36"><path d="M17.456 7.404a8.66 8.66 0 0 0-2.405-4.565A8.7 8.7 0 0 0 5.624.92l-1.477.596 5.339 5.34-.697 2.001-2.05.735-5.334-5.334L.81 5.735a8.7 8.7 0 0 0 1.919 9.427 8.66 8.66 0 0 0 4.565 2.405 8.7 8.7 0 0 0 4.325-.29l.074.075 5.548-5.548-.074-.075a8.7 8.7 0 0 0 .29-4.325"/><path d="M34.735 29.298 24.197 18.76l-5.548 5.547 10.538 10.54a3.9 3.9 0 0 0 2.774 1.148 3.9 3.9 0 0 0 2.774-1.149 3.9 3.9 0 0 0 1.149-2.773 3.9 3.9 0 0 0-1.149-2.775"/><path d="M35.455 4.69 30.87 9.274l-3.038-1.058-1.107-3.087L31.31.545a7.5 7.5 0 0 0-4.068-.44 7.56 7.56 0 0 0-3.18 1.345 7.504 7.504 0 0 0-2.47 8.985L10.434 21.591c-.025.025-.87-.307-.977-.336a7.6 7.6 0 0 0-3.42-.114A7.502 7.502 0 0 0 .546 31.31l4.582-4.585 3.087 1.107 1.058 3.038-4.584 4.584q.273.11.552.198a7.5 7.5 0 0 0 2.26.347c1.575 0 3.16-.51 4.436-1.45q.456-.336.869-.747a7.5 7.5 0 0 0 1.602-8.238l11.156-11.156a7.52 7.52 0 0 0 7.369-.855q.456-.336.869-.747a7.5 7.5 0 0 0 1.652-8.117"/></symbol><use xlink:href="#sprite-settings" width="36" height="36" y="479"/><view id="sprite-settings-view" viewBox="0 479 36 36"/><symbol id="sprite-technic" viewBox="0 0 36 36"><path d="M35.5 11.284c0 .716-.525 1.432-1.4 1.432H32v3.224c0 .538-.7.896-1.05.717-.7-.538-1.575-.538-2.45-.358-.525.179-1.225-.18-1.225-.717v-1.791c0-2.866-2.45-5.373-5.25-5.373h-8.05c-2.8 0-5.25 2.507-5.25 5.373v8.06c0 2.865 2.45 5.373 5.25 5.373h.7c.175 0 .35.179.35.358 0 1.791 1.225 3.224 2.8 3.582.35 0 .525.358.35.717 0 .179-.175.358-.35.358h-5.25v2.328c0 .717-.525 1.433-1.4 1.433-.7 0-1.4-.537-1.4-1.433v-2.686c-2.275-.896-4.55-3.224-5.425-5.91H1.9c-.7 0-1.4-.538-1.4-1.434 0-.716.525-1.432 1.4-1.432H4v-3.94H1.9c-.875.178-1.4-.538-1.4-1.255s.525-1.432 1.4-1.432H4v-3.762H1.9c-.875 0-1.4-.716-1.4-1.432 0-.717.525-1.433 1.4-1.433h2.625c.7-2.687 2.975-5.015 5.775-5.91V1.432C10.3.537 10.825 0 11.525 0s1.4.537 1.4 1.433v2.15h3.85v-2.15C16.775.537 17.3 0 18 0s1.4.537 1.4 1.433v2.15h3.85v-2.15c0-.717.525-1.433 1.4-1.433.7 0 1.4.537 1.4 1.433v2.686c2.45.717 4.725 3.045 5.6 5.91h2.625c.7 0 1.225.538 1.225 1.255"/><path d="M33.75 24.18c-1.225 0-1.925-.538-1.925-1.434 0-.358.175-.716.35-1.253.525-.896.175-1.97-.7-2.508L29.9 18.09c-.7-.538-1.75-.18-2.1.537l-.175.179c-.875 1.433-2.275 1.433-2.975 0l-.175-.18c-.35-.716-1.4-1.074-2.1-.536l-1.575.895c-.525.358-.875.896-.875 1.612 0 .358.175.537.175.895.175.359.35.896.35 1.254 0 .896-.7 1.433-1.925 1.433-1.05 0-1.75.716-1.75 1.791v1.612c0 .896.875 1.791 1.75 1.791 1.225 0 1.925.537 1.925 1.433 0 .358-.175.716-.35 1.254-.525.895-.175 1.97.7 2.507l1.575.896c.7.537 1.75.179 2.1-.538l.175-.179c.875-1.433 2.275-1.433 2.975 0l.175.18c.525.716 1.4 1.074 2.1.537l1.575-.896c.525-.358.875-.895.875-1.612 0-.358-.175-.537-.175-.895-.175-.359-.35-.896-.35-1.254 0-.896.7-1.433 1.925-1.433 1.05 0 1.75-.895 1.75-1.79V25.97c0-.895-.7-1.79-1.75-1.79m-7.525 5.73c-1.575 0-2.975-1.253-2.975-3.044 0-1.612 1.4-3.045 2.975-3.045 1.75 0 2.975 1.433 2.975 3.045 0 1.79-1.225 3.044-2.975 3.044"/><path d="M25.525 14.328v1.075c0 .537-.7.896-1.4.896-.875-.18-1.75-.18-2.45.358l-1.575.895c-1.05.717-1.75 1.791-1.75 3.045v.358c0 .717-.35 1.612-1.05 1.791-.875.359-1.575 1.075-1.75 1.97-.175.359-.525.717-.875.717-2.275 0-4.025-1.791-4.025-4.12V14.15c0-2.328 1.75-4.12 4.025-4.12h7c1.925.36 3.85 2.15 3.85 4.3"/></symbol><use xlink:href="#sprite-technic" width="36" height="36" y="515"/><view id="sprite-technic-view" viewBox="0 515 36 36"/><symbol id="sprite-unhappy" viewBox="0 0 33 33"><path d="M16.5 33C7.388 33 0 25.613 0 16.5S7.388 0 16.5 0 33 7.388 33 16.5 25.613 33 16.5 33m-3-21h-6v3h6zm12 0h-6v3h6zm-9 6a7.5 7.5 0 0 0-6.495 3.75l-.751 1.297 2.596 1.502.75-1.297A4.5 4.5 0 0 1 16.5 21c1.665 0 3.12.901 3.9 2.25l.75 1.299 2.597-1.501-.75-1.3A7.5 7.5 0 0 0 16.5 18"/></symbol><use xlink:href="#sprite-unhappy" width="33" height="33" y="551"/><view id="sprite-unhappy-view" viewBox="0 551 33 33"/><symbol id="sprite-video" viewBox="0 0 20 21"><path d="M10 .5C4.477.5 0 4.977 0 10.5s4.477 10 10 10 10-4.477 10-10-4.477-10-10-10M7.268 14.85v-8.7L14.8 10.5z"/></symbol><use xlink:href="#sprite-video" width="20" height="21" y="584"/><view id="sprite-video-view" viewBox="0 584 20 21"/><symbol id="sprite-warranty" viewBox="0 0 36 36"><path fill-rule="evenodd" clip-rule="evenodd" d="M18.244 8.986a8.8 8.8 0 0 0-4.924 1.515 8.96 8.96 0 0 0-3.264 4.032 9.1 9.1 0 0 0-.504 5.192 9 9 0 0 0 2.425 4.6 8.8 8.8 0 0 0 4.538 2.46 8.75 8.75 0 0 0 5.12-.511 8.9 8.9 0 0 0 3.978-3.31 9.07 9.07 0 0 0 1.494-4.992 9.05 9.05 0 0 0-2.596-6.354 8.8 8.8 0 0 0-6.267-2.632m4.055 8.21-3.955 4.01a1.265 1.265 0 0 1-1.784 0l-2.381-2.403a1.313 1.313 0 0 1 0-1.82 1.26 1.26 0 0 1 .897-.379 1.25 1.25 0 0 1 .897.38l1.473 1.505 3.07-3.112a1.257 1.257 0 0 1 1.788.006 1.29 1.29 0 0 1-.005 1.814"/><path fill-rule="evenodd" clip-rule="evenodd" d="M32.39 12.356a2.4 2.4 0 0 1-.354-.887l-.986-4.92a2.6 2.6 0 0 0-.695-1.302 2.53 2.53 0 0 0-1.288-.697l-4.752-1a2.4 2.4 0 0 1-.886-.382L19.396.438a2.48 2.48 0 0 0-2.814 0l-4.032 2.73a2.35 2.35 0 0 1-.897.382l-4.742 1c-.484.104-.929.35-1.277.707-.348.358-.586.81-.683 1.303l-.986 4.92a2.8 2.8 0 0 1-.377.876L.907 16.568a2.62 2.62 0 0 0 0 2.808l2.68 4.212c.169.273.289.573.355.887l.986 4.92c.091.504.329.969.682 1.335s.806.617 1.301.72l4.742 1c.322.063.627.193.897.382l4.032 2.73a2.48 2.48 0 0 0 2.814 0l4.033-2.73a2.4 2.4 0 0 1 .886-.382l4.752-1c.485-.104.93-.35 1.278-.707s.586-.81.683-1.303l.986-4.92c.058-.334.186-.653.377-.932l2.703-4.212a2.59 2.59 0 0 0 0-2.786zM18.245 29.518c-2.252 0-4.454-.677-6.327-1.945a11.5 11.5 0 0 1-4.194-5.182 11.7 11.7 0 0 1-.648-6.672 11.6 11.6 0 0 1 3.116-5.912 11.34 11.34 0 0 1 5.831-3.16 11.24 11.24 0 0 1 6.58.657 11.4 11.4 0 0 1 5.111 4.253A11.65 11.65 0 0 1 26.29 26.13a11.33 11.33 0 0 1-8.046 3.388"/></symbol><use xlink:href="#sprite-warranty" width="36" height="36" y="605"/><view id="sprite-warranty-view" viewBox="0 605 36 36"/><symbol id="sprite-whatsapp" viewBox="0 0 24 24"><path d="M12 0C5.373 0 0 5.373 0 12c0 2.251.632 4.35 1.71 6.15L.108 24l5.975-1.568A11.93 11.93 0 0 0 12 24c6.627 0 12-5.373 12-12S18.627 0 12 0M7.893 6.402c.195 0 .395 0 .568.008.214.005.447.02.67.514.265.586.842 2.056.916 2.205s.126.324.023.52c-.098.2-.149.32-.293.498-.149.172-.312.385-.447.515-.149.15-.303.313-.13.61.171.297.769 1.27 1.652 2.056 1.135 1.014 2.092 1.326 2.39 1.475s.47.125.643-.075c.177-.194.743-.864.943-1.162.195-.298.394-.246.664-.148.274.098 1.735.818 2.033.967s.494.223.569.344c.077.125.077.72-.17 1.414-.247.693-1.46 1.363-2.004 1.41-.55.05-1.061.246-3.568-.74-3.024-1.191-4.932-4.289-5.08-4.489-.15-.195-1.211-1.61-1.211-3.07 0-1.465.768-2.183 1.037-2.48a1.1 1.1 0 0 1 .795-.372"/></symbol><use xlink:href="#sprite-whatsapp" width="24" height="24" y="641"/><view id="sprite-whatsapp-view" viewBox="0 641 24 24"/><symbol id="sprite-youtube" viewBox="0 0 24 18"><path fill-rule="evenodd" clip-rule="evenodd" d="M22.692 1.802c.372.376.64.846.778 1.36.793 3.227.61 8.324.016 11.676a3.06 3.06 0 0 1-.78 1.36 3 3 0 0 1-1.344.788c-1.863.514-9.359.514-9.359.514s-7.496 0-9.358-.514a3 3 0 0 1-1.345-.788 3.06 3.06 0 0 1-.78-1.36c-.797-3.213-.578-8.313-.015-11.66a3.06 3.06 0 0 1 .78-1.36 3 3 0 0 1 1.344-.789C4.492.516 11.988.5 11.988.5s7.496 0 9.358.514a3 3 0 0 1 1.346.788M15.529 9l-5.647 3.542V5.458z"/></symbol><use xlink:href="#sprite-youtube" width="24" height="18" y="665"/><view id="sprite-youtube-view" viewBox="0 665 24 18"/></svg>