<svg width="489" height="63" viewBox="0 0 489 63" fill="none" xmlns="http://www.w3.org/2000/svg">
<path fill-rule="evenodd" clip-rule="evenodd" d="M-0.00738884 62.4709L36.0602 0H65.7426L29.675 62.4709H-0.00738884ZM452.933 62.4709L489.001 0H459.318L423.251 62.4709H452.933ZM392.467 62.4709L428.535 0H398.852L362.785 62.4709H392.467ZM332.002 62.4709L368.07 0H338.387L302.32 62.4709H332.002ZM271.536 62.4709L307.604 0H277.922L241.854 62.4709H271.536ZM211.072 62.4709L247.139 0H217.457L181.389 62.4709H211.072ZM150.606 62.4709L186.673 0H156.991L120.923 62.4709H150.606ZM90.1409 62.4709L126.209 0H96.5261L60.4585 62.4709H90.1409Z" fill="white"/>
</svg>
