<svg width="48" height="48" viewBox="0 0 48 48" fill="none" xmlns="http://www.w3.org/2000/svg">
<path d="M42.9221 12.2186L43.3459 12.9811L42.9221 12.2186ZM28.965 12.2187L28.5411 11.4563L28.965 12.2187ZM15.2995 19.8163L14.8756 19.0539L15.2995 19.8163ZM15.2995 19.8163L15.7234 20.5787L29.3889 12.9811L28.965 12.2187L28.5411 11.4563L14.8756 19.0539L15.2995 19.8163ZM30.2612 12.9811H29.3889V17.7738H30.2612H31.1336V12.9811H30.2612ZM31.5574 18.5363L31.9813 19.2987L43.3459 12.9811L42.9221 12.2186L42.4982 11.4562L31.1336 17.7738L31.5574 18.5363ZM44.2183 12.9811H43.3459V19.853H44.2183H45.0906V12.9811H44.2183ZM44.2231 19.8579H43.3508V43.1277H44.2231H45.0955V19.8579H44.2231ZM43.3508 44V43.1277H4.7449V44V44.8723H43.3508V44ZM3.87256 43.1277H4.7449V3.87234H3.87256H3.00022V43.1277H3.87256ZM4.7449 3V3.87234H13.9651V3V2.12766H4.7449V3ZM14.8374 3.87234H13.9651V19.5445H14.8374H15.7097V3.87234H14.8374ZM13.9651 3V3.87234H14.8374H15.7097C15.7097 2.90878 14.9286 2.12766 13.9651 2.12766V3ZM3.87256 3.87234H4.7449L4.7449 3.87234V3V2.12766C3.78134 2.12766 3.00022 2.90878 3.00022 3.87234H3.87256ZM4.7449 44V43.1277H4.7449H3.87256H3.00022C3.00022 44.0912 3.78134 44.8723 4.7449 44.8723V44ZM44.2231 43.1277H43.3508V44V44.8723C44.3144 44.8723 45.0955 44.0912 45.0955 43.1277H44.2231ZM44.2207 19.8555V20.7278C43.7403 20.7278 43.3508 20.3383 43.3508 19.8579H44.2231H45.0955C45.0955 19.3748 44.7038 18.9831 44.2207 18.9831V19.8555ZM44.2183 19.853H43.3459C43.3459 20.3362 43.7376 20.7278 44.2207 20.7278V19.8555V18.9831C44.7011 18.9831 45.0906 19.3726 45.0906 19.853H44.2183ZM42.9221 12.2186L43.3459 12.9811V12.9811H44.2183H45.0906C45.0906 11.6506 43.6611 10.8097 42.4982 11.4562L42.9221 12.2186ZM30.2612 17.7738H29.3889C29.3889 19.1043 30.8184 19.9452 31.9813 19.2987L31.5574 18.5363L31.1336 17.7738V17.7738H30.2612ZM28.965 12.2187L29.3889 12.9811L29.3889 12.9811H30.2612H31.1336C31.1336 11.6506 29.704 10.8097 28.5411 11.4563L28.965 12.2187ZM15.1484 19.8555V20.7278C15.3496 20.7278 15.5475 20.6765 15.7234 20.5787L15.2995 19.8163L14.8756 19.0539C14.959 19.0075 15.0529 18.9831 15.1484 18.9831V19.8555ZM15.1484 19.8555V18.9831C15.4584 18.9831 15.7097 19.2345 15.7097 19.5445H14.8374H13.9651C13.9651 20.198 14.4948 20.7278 15.1484 20.7278V19.8555Z" fill="#7F8183"/>
<path d="M15.5341 26.9598V30.6809H14.7035V26.9598H15.5341ZM19.5373 26.9598V30.6809H18.7067L17.3011 28.276V30.6809H16.4679V26.9598H17.3011L18.7093 29.3647V26.9598H19.5373ZM21.5931 30.6809H20.7753L20.7804 30.0369H21.5931C21.7788 30.0369 21.9356 29.9943 22.0633 29.9091C22.1911 29.8222 22.2882 29.6944 22.3547 29.5257C22.4211 29.3554 22.4544 29.1483 22.4544 28.9047V28.7335C22.4544 28.5495 22.4356 28.3876 22.3981 28.2479C22.3607 28.1065 22.3053 27.9881 22.232 27.8927C22.1588 27.7972 22.0676 27.7257 21.9586 27.678C21.8512 27.6303 21.7277 27.6064 21.588 27.6064H20.7599V26.9598H21.588C21.8401 26.9598 22.0702 27.0024 22.278 27.0876C22.4876 27.1728 22.6682 27.2946 22.8198 27.4531C22.9732 27.6115 23.0916 27.7989 23.1751 28.0153C23.2586 28.2317 23.3003 28.4728 23.3003 28.7386V28.9047C23.3003 29.1688 23.2586 29.4099 23.1751 29.628C23.0916 29.8443 22.9732 30.0318 22.8198 30.1902C22.6682 30.347 22.4884 30.4679 22.2806 30.5531C22.0727 30.6383 21.8436 30.6809 21.5931 30.6809ZM21.2481 26.9598V30.6809H20.4149V26.9598H21.2481ZM26.1075 26.9598H26.9406V29.4031C26.9406 29.6927 26.8793 29.9364 26.7566 30.134C26.6356 30.3316 26.467 30.4807 26.2506 30.5812C26.0342 30.6818 25.7837 30.732 25.4992 30.732C25.213 30.732 24.9608 30.6818 24.7427 30.5812C24.5263 30.4807 24.356 30.3316 24.2316 30.134C24.1089 29.9364 24.0476 29.6927 24.0476 29.4031V26.9598H24.8833V29.4031C24.8833 29.5632 24.9071 29.6944 24.9548 29.7966C25.0043 29.8972 25.075 29.9713 25.167 30.019C25.259 30.065 25.3697 30.088 25.4992 30.088C25.6287 30.088 25.7386 30.065 25.8289 30.019C25.9209 29.9713 25.9899 29.8972 26.0359 29.7966C26.0836 29.6944 26.1075 29.5632 26.1075 29.4031V26.9598ZM29.7273 29.6995C29.7273 29.6365 29.718 29.5803 29.6992 29.5308C29.6805 29.4797 29.6464 29.4329 29.597 29.3903C29.5476 29.3477 29.4777 29.3051 29.3874 29.2625C29.2971 29.2182 29.1787 29.1731 29.0322 29.1271C28.8652 29.0725 28.7059 29.0112 28.5543 28.943C28.4043 28.8732 28.2706 28.7923 28.153 28.7003C28.0355 28.6082 27.9426 28.5009 27.8745 28.3782C27.808 28.2556 27.7748 28.1124 27.7748 27.9489C27.7748 27.7904 27.8097 27.6473 27.8796 27.5195C27.9494 27.3917 28.0474 27.2827 28.1735 27.1924C28.2996 27.1004 28.4478 27.0305 28.6182 26.9828C28.7885 26.9334 28.976 26.9087 29.1804 26.9087C29.453 26.9087 29.6924 26.9573 29.8986 27.0544C30.1064 27.1498 30.2683 27.2844 30.3841 27.4582C30.5 27.6303 30.5579 27.8305 30.5579 28.0588H29.7299C29.7299 27.9583 29.7086 27.8697 29.666 27.793C29.6251 27.7146 29.5621 27.6533 29.4769 27.609C29.3934 27.5647 29.2886 27.5425 29.1625 27.5425C29.0399 27.5425 28.9368 27.5613 28.8533 27.5988C28.7715 27.6345 28.7093 27.6839 28.6667 27.747C28.6258 27.81 28.6054 27.879 28.6054 27.954C28.6054 28.0136 28.6207 28.0681 28.6514 28.1176C28.6838 28.1653 28.7298 28.2104 28.7894 28.253C28.8507 28.2939 28.9257 28.3331 29.0143 28.3706C29.1029 28.4081 29.2043 28.4438 29.3184 28.4779C29.5178 28.5409 29.6941 28.6108 29.8475 28.6875C30.0025 28.7641 30.1328 28.851 30.2385 28.9482C30.3441 29.0453 30.4233 29.1552 30.4762 29.2778C30.5307 29.4005 30.5579 29.5394 30.5579 29.6944C30.5579 29.8597 30.5256 30.0062 30.4608 30.134C30.3978 30.2618 30.3058 30.3708 30.1848 30.4611C30.0655 30.5497 29.9224 30.617 29.7554 30.663C29.5885 30.709 29.4019 30.732 29.1958 30.732C29.0083 30.732 28.8235 30.7082 28.6412 30.6605C28.4589 30.6111 28.2936 30.5361 28.1454 30.4356C27.9988 30.335 27.8813 30.2073 27.7927 30.0522C27.7058 29.8955 27.6623 29.7097 27.6623 29.4951H28.4955C28.4955 29.6075 28.5117 29.7029 28.5441 29.7813C28.5764 29.858 28.6224 29.9202 28.6821 29.9679C28.7434 30.0156 28.8175 30.0497 28.9044 30.0701C28.9913 30.0905 29.0884 30.1008 29.1958 30.1008C29.3201 30.1008 29.4207 30.0837 29.4973 30.0497C29.5757 30.0139 29.6336 29.9653 29.6711 29.904C29.7086 29.8426 29.7273 29.7745 29.7273 29.6995ZM33.0431 26.9598V30.6809H32.2125V26.9598H33.0431ZM34.1752 26.9598V27.6064H31.1033V26.9598H34.1752ZM34.8484 26.9598H36.277C36.5616 26.9598 36.8078 27.0024 37.0156 27.0876C37.2252 27.1728 37.3862 27.2989 37.4987 27.4659C37.6111 27.6328 37.6673 27.839 37.6673 28.0843C37.6673 28.2888 37.6341 28.4626 37.5677 28.6057C37.5012 28.7488 37.4075 28.8672 37.2865 28.9609C37.1673 29.0546 37.0276 29.1305 36.8674 29.1884L36.5965 29.3366H35.38L35.3749 28.69H36.2796C36.404 28.69 36.5071 28.6679 36.5888 28.6236C36.6706 28.5793 36.732 28.5171 36.7728 28.437C36.8154 28.3552 36.8367 28.2598 36.8367 28.1508C36.8367 28.0383 36.8154 27.9412 36.7728 27.8594C36.7303 27.7776 36.6672 27.7155 36.5837 27.6729C36.5019 27.6286 36.3997 27.6064 36.277 27.6064H35.6816V30.6809H34.8484V26.9598ZM36.9083 30.6809L36.0726 29.0274L36.9517 29.0248L37.8002 30.6426V30.6809H36.9083ZM38.9666 26.9598L39.695 28.6159L40.4285 26.9598H41.3281L40.1193 29.3366V30.6809H39.2733V29.3366L38.0619 26.9598H38.9666Z" fill="#7F8183"/>
<path d="M33.1656 38.2007V39.4376H27.8089L27.722 38.4665L30.7684 33.6004H32.0309L30.661 35.8699L29.2759 38.2007H33.1656ZM32.3682 33.6004V41.0426H30.7735V33.6004H32.3682ZM33.4576 40.2861C33.4576 40.0544 33.5393 39.8602 33.7029 39.7034C33.8699 39.5467 34.0863 39.4683 34.3521 39.4683C34.6213 39.4683 34.8359 39.5467 34.9961 39.7034C35.1597 39.8602 35.2414 40.0544 35.2414 40.2861C35.2414 40.5144 35.1597 40.707 34.9961 40.8637C34.8359 41.0205 34.6213 41.0988 34.3521 41.0988C34.0863 41.0988 33.8699 41.0205 33.7029 40.8637C33.5393 40.707 33.4576 40.5144 33.4576 40.2861ZM40.8901 36.657V37.9809C40.8901 38.5261 40.8288 38.9981 40.7061 39.3967C40.5868 39.7954 40.4131 40.1243 40.1847 40.3832C39.9598 40.6422 39.6906 40.8347 39.3771 40.9608C39.0671 41.0835 38.7229 41.1448 38.3447 41.1448C38.0414 41.1448 37.7585 41.1056 37.4962 41.0273C37.2338 40.9489 36.997 40.8279 36.7857 40.6644C36.5778 40.4974 36.3989 40.2895 36.249 40.0408C36.0991 39.792 35.9832 39.4956 35.9014 39.1514C35.823 38.8072 35.7839 38.4171 35.7839 37.9809V36.657C35.7839 36.105 35.8435 35.6314 35.9628 35.2361C36.0854 34.8408 36.2609 34.5137 36.4892 34.2547C36.7175 33.9957 36.9867 33.8049 37.2968 33.6822C37.6103 33.5596 37.9562 33.4982 38.3344 33.4982C38.6377 33.4982 38.9188 33.5374 39.1778 33.6158C39.4402 33.6942 39.677 33.8151 39.8883 33.9787C40.0996 34.1423 40.2785 34.3484 40.425 34.5972C40.5749 34.8459 40.6891 35.1424 40.7674 35.4865C40.8492 35.8273 40.8901 36.2175 40.8901 36.657ZM39.2954 38.1802V36.4475C39.2954 36.1919 39.28 35.9704 39.2494 35.783C39.2221 35.5922 39.1812 35.4303 39.1267 35.2974C39.0756 35.1645 39.0108 35.0572 38.9325 34.9754C38.8541 34.8936 38.7638 34.834 38.6616 34.7965C38.5627 34.7556 38.4537 34.7352 38.3344 34.7352C38.1845 34.7352 38.0499 34.7658 37.9306 34.8272C37.8114 34.8885 37.7108 34.9856 37.6291 35.1185C37.5473 35.248 37.4842 35.4235 37.4399 35.645C37.399 35.8631 37.3786 36.1306 37.3786 36.4475V38.1802C37.3786 38.4358 37.3922 38.659 37.4195 38.8498C37.4502 39.0406 37.4911 39.2042 37.5422 39.3405C37.5967 39.4734 37.6631 39.5825 37.7415 39.6676C37.8199 39.7494 37.9102 39.8091 38.0124 39.8465C38.1146 39.884 38.2254 39.9028 38.3447 39.9028C38.4946 39.9028 38.6275 39.8738 38.7433 39.8159C38.8592 39.7545 38.958 39.6574 39.0398 39.5245C39.125 39.3882 39.188 39.2093 39.2289 38.9878C39.2732 38.7663 39.2954 38.4971 39.2954 38.1802Z" fill="#C70C12"/>
<path d="M6.94727 39.5284L6.95192 39.533M6.93248 36.9118C7.6264 36.908 8.29342 37.18 8.78687 37.6679C9.28031 38.1558 9.55977 38.8197 9.5638 39.5136M6.9177 34.2944C7.60504 34.2905 8.28642 34.422 8.92293 34.6814C9.55944 34.9409 10.1386 35.3232 10.6274 35.8064C11.1162 36.2897 11.5049 36.8645 11.7716 37.4981C12.0382 38.1316 12.1774 38.8115 12.1813 39.4988" stroke="#D71920" stroke-linecap="round" stroke-linejoin="round"/>
<path d="M6.90301 31.678C11.2391 31.653 14.7739 35.1481 14.8118 39.498" stroke="#D71920" stroke-linecap="round" stroke-linejoin="round"/>
</svg>
