<svg width="48" height="48" viewBox="0 0 48 48" fill="none" xmlns="http://www.w3.org/2000/svg">
<rect width="48" height="48" rx="4" fill="#D71920"/>
<path d="M4 29.4417V18.9417L13.5 13.4417C14.5 13.1084 17 12.6417 19 13.4417C21 14.2417 28.1667 18.7751 31.5 20.9417C32.1667 21.275 33.8 21.7417 35 20.9417C36.2 20.1418 39.1667 17.9418 40.5 16.9418L44.5 18.9417V29.4417C42.1667 30.9417 36.9 34.1418 34.5 34.9418C32.1 35.7418 30.1667 35.2751 29.5 34.9418C26.1667 32.7751 19.1 28.2418 17.5 27.4418C15.9 26.6418 14.8333 27.1084 14.5 27.4418L7.5 31.9417L4 29.4417Z" fill="white"/>
<ellipse cx="40.1628" cy="26.7957" rx="3" ry="1.5" transform="rotate(-64.013 40.1628 26.7957)" fill="#D71920"/>
<path d="M7.5 20.9417L4 18.9417M7.5 20.9417V31.9417M7.5 20.9417C9.33333 19.9417 12.4 17.8 14 17C15.6 16.2 18 16.6084 18.5 16.9418C21.6667 18.9418 28.9 23.8 30.5 25C32.1 26.2 34 25.3333 35 25L44.5 18.9417M4 18.9417V29.4417L7.5 31.9417M4 18.9417L13.5 13.4417C14.5 13.1084 17 12.6417 19 13.4417C21 14.2417 28.1667 18.7751 31.5 20.9417C32.1667 21.275 33.8 21.7417 35 20.9417C36.2 20.1418 39.1667 17.9418 40.5 16.9418L44.5 18.9417M7.5 31.9417L14.5 27.4418C14.8333 27.1084 15.9 26.6418 17.5 27.4418C19.1 28.2418 26.1667 32.7751 29.5 34.9418C30.1667 35.2751 32.1 35.7418 34.5 34.9418C36.9 34.1418 42.1667 30.9417 44.5 29.4417V18.9417" stroke="#D71920"/>
</svg>
