<svg width="48" height="48" viewBox="0 0 48 48" fill="none" xmlns="http://www.w3.org/2000/svg">
<rect width="48" height="48" rx="4" fill="#D71920"/>
<path d="M14 15C14.351 15 14.6869 15.0631 15 15.1738V18H9V30H15V32.8252C14.6869 32.936 14.3511 33 14 33H9C7.34315 33 6 31.6569 6 30V18C6 16.3431 7.34315 15 9 15H14Z" fill="white"/>
<path d="M41 15C41.351 15 41.6869 15.0631 42 15.1738V18H36V30H42V32.8252C41.6869 32.936 41.3511 33 41 33H36C34.3431 33 33 31.6569 33 30V18C33 16.3431 34.3431 15 36 15H41Z" fill="white"/>
<path d="M17.5 33H21V21H21.5L25.5 33H30V15H27V26.5H26.5L22 15H17.5V33Z" fill="white"/>
</svg>
