<svg width="48" height="48" viewBox="0 0 48 48" fill="none" xmlns="http://www.w3.org/2000/svg">
<rect width="48" height="48" rx="4" fill="#D71920"/>
<path d="M4 21V10.5L8 8C12.4883 10.6061 20.8754 16.3816 23.0006 21H30.5L44.5 29.5V34L35.5 40C24.7329 34.4171 21.4171 29.9244 20.211 26H13.5L4 21Z" fill="white"/>
<ellipse cx="35.5" cy="29" rx="3" ry="1.5" fill="#D71920"/>
<path d="M4 10.5C8.83333 13 18.7 19 19.5 23C19.7024 24.0122 19.9049 25.0039 20.211 26M4 10.5V21L13.5 26H20.211M4 10.5L8 8C12.4883 10.6061 20.8754 16.3816 23.0006 21M35.5 40C24.7329 34.4171 21.4171 29.9244 20.211 26M35.5 40V34.5M35.5 40L44.5 34V29.5M35.5 34.5C31.5 32.6667 23.5 27.8 23.5 23C23.5 22.3697 23.3218 21.6981 23.0006 21M35.5 34.5L44.5 29.5M44.5 29.5L30.5 21H23.0006" stroke="#D71920"/>
</svg>
