<svg width="48" height="48" viewBox="0 0 48 48" fill="none" xmlns="http://www.w3.org/2000/svg">
<rect width="48" height="48" rx="4" fill="#D71920"/>
<path d="M3 27.682V16.875L6.5 14C6.5 14 19.2169 23 20.5 23.5C21.7831 24 24.512 24 25.5 23.5C26.488 23 40.5 14 40.5 14L44 16.875V27.682C44 27.682 27.6988 37.0154 26.2169 37.5066C24.7349 37.9978 20.7831 37.9978 19.7952 37.5066C18.8072 37.0154 3 27.682 3 27.682Z" fill="white"/>
<ellipse cx="39.6628" cy="24.3539" rx="3" ry="1.5" transform="rotate(-64.013 39.6628 24.3539)" fill="#D71920"/>
<path d="M3 16.875V27.682C3 27.682 18.8072 37.0154 19.7952 37.5066C20.7831 37.9978 24.7349 37.9978 26.2169 37.5066C27.6988 37.0154 44 27.682 44 27.682V16.875M3 16.875C3 16.875 19.3012 27.1908 20.7831 27.682C22.2651 28.1732 24.241 28.1732 25.2289 27.682C26.2169 27.1908 44 16.875 44 16.875M3 16.875L6.5 14C6.5 14 19.5 23 20.7831 23.5C22.0663 24 24.241 24 25.2289 23.5C26.2169 23 40.5 14 40.5 14L44 16.875" stroke="#D71920"/>
</svg>
