<svg width="48" height="48" viewBox="0 0 48 48" fill="none" xmlns="http://www.w3.org/2000/svg">
<rect width="48" height="48" rx="4" fill="#D71920"/>
<path d="M32.5 20L45 27.5L44.5 31.5L35 38.5L23 30.5V25.5L32.5 20Z" fill="white"/>
<path d="M23 25.5L35.5 33.5M23 25.5L32.5 20L45 27.5M23 25.5V30.5L35 38.5M35.5 33.5L45 27.5M35.5 33.5L35 38.5M45 27.5L44.5 31.5L35 38.5" stroke="#D71920"/>
<path d="M4 14L13.5 9L28.5 17V22L19 28L4 18.5V14Z" fill="white"/>
<path d="M4 14L13.5 9L28.5 17M4 14L19 23M4 14V18.5L19 28M28.5 17L19 23M28.5 17V22L19 28M19 23V28" stroke="#D71920"/>
<path d="M4 14L13.5 9L28.5 17M4 14L19 23M4 14V18.5L19 28M28.5 17L19 23M28.5 17V22L19 28M19 23V28" stroke="#D71920"/>
<path d="M23 25.5L35.5 33.5M23 25.5L32.5 20L45 27.5M23 25.5V30.5L35 38.5M35.5 33.5L45 27.5M35.5 33.5L35 38.5M45 27.5L44.5 31.5L35 38.5" stroke="#D71920"/>
<ellipse cx="34" cy="26.5" rx="3" ry="1.5" fill="#D71920"/>
</svg>
