<svg width="48" height="48" viewBox="0 0 48 48" fill="none" xmlns="http://www.w3.org/2000/svg">
<rect width="48" height="48" rx="4" fill="#FA9D1A"/>
<path d="M24.5 21.041C24.6981 21.0742 24.8884 21.1302 25.0713 21.2002L27.5449 15.792L28.4551 16.208L25.9375 21.7109C26.0149 21.7765 26.0878 21.8469 26.1582 21.9199C28.0631 20.0026 29.8053 18.2657 31.1338 16.9678C31.8267 16.2907 32.4096 15.7304 32.8457 15.3262C33.0633 15.1245 33.2477 14.9585 33.3926 14.835C33.5177 14.7283 33.6613 14.6103 33.7764 14.5527L34.2236 15.4473C34.2387 15.4397 34.1904 15.4683 34.041 15.5957C33.9115 15.7062 33.7389 15.8617 33.5254 16.0596C33.0989 16.4548 32.5229 17.0076 31.832 17.6826C30.4771 19.0065 28.6877 20.7918 26.7305 22.7627C26.7454 22.7956 26.7616 22.8278 26.7754 22.8613L33.3018 20.041L33.6982 20.959L26.9961 23.8564C26.9983 23.904 27 23.9519 27 24C27 24.1704 26.9853 24.3374 26.958 24.5H37.5V25.5H27.8223L33.6982 28.041L33.3018 28.959L26.3086 25.9326C29.2545 28.9233 32.1975 31.9321 34.3584 34.1514L33.6416 34.8486C31.4668 32.6151 28.5003 29.5812 25.5361 26.5723C25.4959 26.5963 25.4564 26.6214 25.415 26.6436L28.4551 33.292L27.5449 33.708L24.5 27.0498V39H23.5V27.042L20.4551 33.708L19.5449 33.292L22.3125 27.2344C19.5693 30.022 16.8737 32.7788 14.8584 34.8486L14.1416 34.1514C16.2424 31.9938 19.0821 29.0896 21.9453 26.1816C21.9109 26.1492 21.8766 26.117 21.8438 26.083L15.1982 28.959L14.8018 28.041L20.6758 25.5H10V24.5H21.042C21.0147 24.3374 21 24.1704 21 24C21 23.8811 21.007 23.7638 21.0205 23.6484L14.8018 20.959L15.1982 20.041L21.3076 22.6816C21.3491 22.5972 21.3944 22.5153 21.4434 22.4355C19.6136 20.5948 17.9474 18.9327 16.668 17.6826C15.9771 17.0076 15.4011 16.4548 14.9746 16.0596C14.7611 15.8617 14.5885 15.7062 14.459 15.5957C14.3096 15.4683 14.2613 15.4397 14.2764 15.4473L14.7236 14.5527C14.8387 14.6103 14.9823 14.7283 15.1074 14.835C15.2523 14.9585 15.4367 15.1245 15.6543 15.3262C16.0904 15.7304 16.6733 16.2907 17.3662 16.9678C18.6149 18.1878 20.2277 19.7972 21.999 21.5781L19.5449 16.208L20.4551 15.792L22.9268 21.2002C23.1102 21.1298 23.3013 21.0743 23.5 21.041V0H24.5V21.041Z" fill="white"/>
</svg>
