<svg width="48" height="48" viewBox="0 0 48 48" fill="none" xmlns="http://www.w3.org/2000/svg">
<rect width="48" height="48" rx="4" fill="#D71920"/>
<ellipse cx="34" cy="26.5" rx="3" ry="1.5" fill="#D71920"/>
<rect x="3.69335" y="19.572" width="13.0731" height="18.8579" rx="5.5" transform="rotate(-56.3193 3.69335 19.572)" fill="white" stroke="#D71920"/>
<path d="M23.0875 17.5055C23.8616 17.9636 24.333 18.9041 24.3784 20.17C24.4235 21.4293 24.0379 22.9391 23.1835 24.3831C22.329 25.8272 21.1908 26.8926 20.0652 27.4592C18.9339 28.0286 17.8829 28.0674 17.1089 27.6094C16.3351 27.1514 15.8638 26.2118 15.8184 24.9463C15.7732 23.687 16.1592 22.1765 17.0137 20.7324C17.8682 19.2884 19.006 18.2237 20.1316 17.6571C21.2628 17.0877 22.3135 17.0478 23.0875 17.5055Z" fill="white" stroke="#D71920"/>
<path d="M21.6426 19.9492C21.9839 20.1513 22.2246 20.5867 22.2481 21.2425C22.2713 21.8918 22.072 22.6868 21.6168 23.4561C21.1615 24.2255 20.5604 24.7835 19.9799 25.0757C19.3938 25.3707 18.8968 25.3685 18.5553 25.1667C18.2138 24.9646 17.972 24.5297 17.9485 23.8738C17.9252 23.2243 18.125 22.4287 18.5803 21.6593C19.0355 20.8901 19.6364 20.3327 20.2167 20.0405C20.8031 19.7453 21.3011 19.7471 21.6426 19.9492Z" fill="white" stroke="#D71920"/>
<rect x="19.6934" y="29.572" width="13.0731" height="18.8579" rx="5.5" transform="rotate(-56.3193 19.6934 29.572)" fill="white" stroke="#D71920"/>
<path d="M39.0875 27.5055C39.8616 27.9636 40.333 28.9041 40.3784 30.17C40.4235 31.4293 40.0379 32.9391 39.1835 34.3831C38.329 35.8272 37.1908 36.8926 36.0652 37.4592C34.9339 38.0286 33.8829 38.0674 33.1089 37.6094C32.3351 37.1514 31.8638 36.2118 31.8184 34.9463C31.7732 33.687 32.1592 32.1765 33.0137 30.7324C33.8682 29.2884 35.006 28.2237 36.1316 27.6571C37.2628 27.0877 38.3135 27.0478 39.0875 27.5055Z" fill="white" stroke="#D71920"/>
<rect x="34.0327" y="34.9891" width="6.36952" height="8.63355" rx="2.5" transform="rotate(-56.3193 34.0327 34.9891)" fill="white" stroke="#D71920"/>
<path d="M43.0785 33.766C43.9977 34.31 44.32 35.8559 43.4465 37.3323C42.5728 38.8089 41.0622 39.2712 40.1429 38.7272C39.2238 38.1831 38.9026 36.637 39.7762 35.1606C40.6499 33.6845 42.1592 33.2224 43.0785 33.766Z" fill="white" stroke="#D71920"/>
</svg>
