<svg width="48" height="48" viewBox="0 0 48 48" fill="none" xmlns="http://www.w3.org/2000/svg">
<rect width="48" height="48" rx="4" fill="#D71920"/>
<ellipse cx="34" cy="26.5" rx="3" ry="1.5" fill="#D71920"/>
<path d="M22.8283 23.7575L22.8285 23.7572C23.1683 23.0775 23.6814 22.571 24.3285 22.1986C27.0529 19.5878 31.7824 18.4321 38.3281 23.7571C47.5282 31.2415 43.7035 35.6608 40.891 37.7572C40.0785 39.1322 38.8285 39.7572 37.8285 39.7572C36.2285 39.7572 22.8285 29.7572 22.3285 27.7572C22.0784 26.7571 21.9534 26.2571 22.0159 25.7571C22.0784 25.2572 22.3284 24.7573 22.8283 23.7575Z" fill="white"/>
<path d="M40.891 37.7572C40.0785 39.1322 38.8285 39.7572 37.8285 39.7572C36.2285 39.7572 22.8285 29.7572 22.3285 27.7572C21.8284 25.7572 21.8285 25.7572 22.8285 23.7572C23.8285 21.7572 26.3288 21.257 29.3285 21.2572C32.3281 21.2573 40.1285 26.4572 41.3285 31.2572C42.0785 34.2572 41.7035 36.3822 40.891 37.7572ZM40.891 37.7572C43.7035 35.6608 47.5282 31.2415 38.3281 23.7571C29.1281 16.2728 23.5159 21.5907 22.0158 25.7574" stroke="#D71920"/>
<ellipse cx="35.8812" cy="32.0331" rx="3" ry="1.5" transform="rotate(62.4863 35.8812 32.0331)" fill="#D71920"/>
<rect x="2.69335" y="18.572" width="13.0731" height="18.3048" rx="5.5" transform="rotate(-56.3193 2.69335 18.572)" fill="white" stroke="#D71920"/>
<path d="M29.0479 19.3654L26.0479 19.8654L22.0479 24.3654L21.5479 30.3654L14.0479 25.8654V20.3654L18.0479 15.3654L20.5479 14.3654L29.0479 19.3654Z" fill="white"/>
<path d="M26.0479 19.8654L29.0479 19.3654L20.5479 14.3654L18.0479 15.3654M26.0479 19.8654L22.0479 24.3654M26.0479 19.8654L18.0479 15.3654M22.0479 24.3654L21.5479 30.3654L14.0479 25.8654V20.3654M22.0479 24.3654L14.0479 20.3654M14.0479 20.3654L18.0479 15.3654" stroke="#D71920"/>
</svg>
